<svg width="680" height="200" viewBox="0 0 680 200" role="img" xmlns="http://www.w3.org/2000/svg">
  <title>NutriPrint Logo</title>
  <desc>NutriPrint logo featuring a combined leaf and clipboard icon in green and orange, with the tagline "Healthy Eating Awareness for Children"</desc>

  <rect width="680" height="200" fill="#ffffff"/>

  <circle cx="100" cy="100" r="62" fill="#F0FAF5"/>

  <rect x="72" y="72" width="56" height="64" rx="5" fill="#ffffff" stroke="#1D9E75" stroke-width="2.5"/>

  <rect x="87" y="65" width="26" height="14" rx="4" fill="#1D9E75"/>
  <rect x="93" y="62" width="14" height="8" rx="3" fill="#ffffff" stroke="#1D9E75" stroke-width="1.5"/>

  <line x1="82" y1="97" x2="118" y2="97" stroke="#1D9E75" stroke-width="1.8" stroke-linecap="round" opacity="0.45"/>
  <line x1="82" y1="108" x2="110" y2="108" stroke="#1D9E75" stroke-width="1.8" stroke-linecap="round" opacity="0.45"/>
  <line x1="82" y1="119" x2="113" y2="119" stroke="#1D9E75" stroke-width="1.8" stroke-linecap="round" opacity="0.45"/>

  <path d="M108 115 C120 88 148 82 148 82 C148 82 148 114 128 124 C118 129 108 125 108 115Z" fill="#1D9E75"/>
  <path d="M108 115 C118 100 135 90 148 82" fill="none" stroke="#ffffff" stroke-width="1.2" stroke-linecap="round" opacity="0.6"/>
  <path d="M120 108 C125 100 133 94 141 88" fill="none" stroke="#ffffff" stroke-width="0.9" stroke-linecap="round" opacity="0.5"/>

  <circle cx="132" cy="130" r="7" fill="#E08E0B"/>
  <path d="M129 130 L131.5 132.5 L136 127.5" fill="none" stroke="#ffffff" stroke-width="1.5" stroke-linecap="round" stroke-linejoin="round"/>

  <text x="184" y="96" font-family="'Helvetica Neue', Helvetica, Arial, sans-serif" font-size="42" font-weight="700" letter-spacing="-0.5">
    <tspan fill="#1D9E75">Nutri</tspan><tspan fill="#E08E0B">Print</tspan>
  </text>

  <rect x="184" y="108" width="360" height="1.5" rx="1" fill="#E08E0B" opacity="0.35"/>

  <text x="186" y="134" font-family="'Helvetica Neue', Helvetica, Arial, sans-serif" font-size="15" font-weight="400" fill="#555555" letter-spacing="0.4">Healthy Eating Awareness for Children</text>
</svg>
